P2
10 10
225
0 0 225 225 0 0 225 225 0 0 0 0 225 225 0 0 225 225 0 0 225 225 0 0 225 225 0 0 225 225 225 225 0 0 225 225 0 0 225 225 0 0 225 225 0 0 225 225 0 0 0 0 225 225 0 0 225 225 0 0 225 225 0 0 225 225 0 0 225 225 225 225 0 0 225 225 0 0 225 225 0 0 225 225 0 0 225 225 0 0 0 0 225 225 0 0 225 225 0 0 